<svg xmlns="http://www.w3.org/2000/svg" xmlns:xlink="http://www.w3.org/1999/xlink" width="1000" height="666.66669">
  <defs>
    <path id="a" d="M0 0h750v500H0Z"/>
  </defs>
  <defs>
    <clipPath id="f" clipPathUnits="userSpaceOnUse">
      <use xlink:href="#a"/>
    </clipPath>
    <clipPath id="g" clipPathUnits="userSpaceOnUse">
      <path d="M356.667 270.101h533.76v-394.784h-533.76z"/>
    </clipPath>
    <clipPath id="h" clipPathUnits="userSpaceOnUse">
      <path d="M380.616 244.457h533.76v-394.784h-533.76z"/>
    </clipPath>
    <clipPath id="i" clipPathUnits="userSpaceOnUse">
      <path d="M399.326 210.218h533.761v-394.784H399.326Z"/>
    </clipPath>
    <clipPath id="j" clipPathUnits="userSpaceOnUse">
      <path d="M423.276 184.574h533.76V-210.21h-533.76z"/>
    </clipPath>
    <clipPath id="n" clipPathUnits="userSpaceOnUse">
      <use xlink:href="#a"/>
    </clipPath>
    <clipPath id="o" clipPathUnits="userSpaceOnUse">
      <path d="M-124.064 631.535h533.76V236.75h-533.76z"/>
    </clipPath>
    <clipPath id="p" clipPathUnits="userSpaceOnUse">
      <path d="M-148.013 657.179h533.76V262.394h-533.76z"/>
    </clipPath>
    <clipPath id="q" clipPathUnits="userSpaceOnUse">
      <path d="M-166.723 691.418h533.76V296.633h-533.76z"/>
    </clipPath>
    <clipPath id="r" clipPathUnits="userSpaceOnUse">
      <path d="M-190.672 717.062h533.76V322.277h-533.76z"/>
    </clipPath>
    <clipPath id="s" clipPathUnits="userSpaceOnUse">
      <path d="M606.074 239.945h20.961v-20.96h-20.961z"/>
    </clipPath>
    <clipPath id="t" clipPathUnits="userSpaceOnUse">
      <path d="M602.51 205.371h8.485v-8.485h-8.485z"/>
    </clipPath>
    <clipPath id="u" clipPathUnits="userSpaceOnUse">
      <path d="M127.025 313.728h13.119v-13.119h-13.119z"/>
    </clipPath>
    <clipPath id="v" clipPathUnits="userSpaceOnUse">
      <path d="M133.084 352.936h27.02v-27.02h-27.02z"/>
    </clipPath>
    <clipPath id="w" clipPathUnits="userSpaceOnUse">
      <path d="M602.51 382.163h8.485v-8.485h-8.485z"/>
    </clipPath>
    <clipPath id="x" clipPathUnits="userSpaceOnUse">
      <path d="M388.648 462.005h8.842v-8.842h-8.842z"/>
    </clipPath>
    <clipPath id="y" clipPathUnits="userSpaceOnUse">
      <path d="M328.054 61.3713h13.119V48.2525h-13.119z"/>
    </clipPath>
    <clipPath id="z" clipPathUnits="userSpaceOnUse">
      <path d="M251.064 44.9752h9.555v-9.5544h-9.555z"/>
    </clipPath>
    <clipPath id="A" clipPathUnits="userSpaceOnUse">
      <path d="M278.232 163.938h37.912v-34.743h-37.912z"/>
    </clipPath>
    <clipPath id="B" clipPathUnits="userSpaceOnUse">
      <path d="M443.362 439.679h37.912v-34.742h-37.912z"/>
    </clipPath>
    <clipPath id="C" clipPathUnits="userSpaceOnUse">
      <path d="M492.551 449.208h13.673v-12.53h-13.673z"/>
    </clipPath>
    <clipPath id="D" clipPathUnits="userSpaceOnUse">
      <path d="M249.005 175.945h13.673v-12.529h-13.673z"/>
    </clipPath>
    <linearGradient id="b" x1="0" x2="1" y1="0" y2="0" gradientTransform="scale(354.319459 -354.319459) rotate(-86.3086 .472323 -.576519)" gradientUnits="userSpaceOnUse" spreadMethod="pad">
      <stop offset="0" style="stop-opacity:1;stop-color:#282a33"/>
      <stop offset="1" style="stop-opacity:1;stop-color:#000"/>
    </linearGradient>
    <linearGradient id="c" x1="0" x2="1" y1="0" y2="0" gradientTransform="scale(-193.28151 193.28151) rotate(-65.1363 .276706 1.600799)" gradientUnits="userSpaceOnUse" spreadMethod="pad">
      <stop offset="0" style="stop-opacity:1;stop-color:#282a33"/>
      <stop offset="1" style="stop-opacity:1;stop-color:#000"/>
    </linearGradient>
    <linearGradient id="d" x1="0" x2="1" y1="0" y2="0" gradientTransform="scale(207.31308 -207.31308) rotate(47.090198 2.28399 2.525868)" gradientUnits="userSpaceOnUse" spreadMethod="pad">
      <stop offset="0" style="stop-opacity:1;stop-color:#282a33"/>
      <stop offset="1" style="stop-opacity:1;stop-color:#000"/>
    </linearGradient>
    <linearGradient id="e" x1="0" x2="1" y1="0" y2="0" gradientTransform="scale(207.31308 -207.31308) rotate(47.090198 2.102445 2.971174)" gradientUnits="userSpaceOnUse" spreadMethod="pad">
      <stop offset="0" style="stop-opacity:1;stop-color:#282a33"/>
      <stop offset="1" style="stop-opacity:1;stop-color:#000"/>
    </linearGradient>
    <linearGradient id="k" x1="0" x2="1" y1="0" y2="0" gradientTransform="scale(220.06831 -220.06831) rotate(-78.034899 .308642 -2.041793)" gradientUnits="userSpaceOnUse" spreadMethod="pad">
      <stop offset="0" style="stop-opacity:1;stop-color:#282a33"/>
      <stop offset="1" style="stop-opacity:1;stop-color:#000"/>
    </linearGradient>
    <linearGradient id="l" x1="0" x2="1" y1="0" y2="0" gradientTransform="scale(-207.31306 207.31306) rotate(47.0902 -2.508453 -.298856)" gradientUnits="userSpaceOnUse" spreadMethod="pad">
      <stop offset="0" style="stop-opacity:1;stop-color:#282a33"/>
      <stop offset="1" style="stop-opacity:1;stop-color:#000"/>
    </linearGradient>
    <linearGradient id="m" x1="0" x2="1" y1="0" y2="0" gradientTransform="scale(-207.31308 207.31308) rotate(47.090198 -2.582006 .11817)" gradientUnits="userSpaceOnUse" spreadMethod="pad">
      <stop offset="0" style="stop-opacity:1;stop-color:#282a33"/>
      <stop offset="1" style="stop-opacity:1;stop-color:#000"/>
    </linearGradient>
  </defs>
  <use xlink:href="#a" style="fill:url(#b);stroke:none" transform="matrix(1.3333333 0 0 -1.3333333 0 666.66667)"/>
  <path d="M23.076 320.966c-7.899-1.029-15.602-2.965-23.076-5.611V0h467.82c7.204 21.573 8.795 45.042 5.975 67.694-3.612 29.009-14.148 56.813-27.718 82.705-11.992 22.882-27.297 45.338-49.938 57.778-10.83 5.95-22.899 9.339-35.06 11.529-41.12 7.405-84.571 1.214-121.988-17.379-13.907-6.91-27.461-15.63-42.871-17.556-30.563-3.822-58.272 20.722-71.511 48.533-10.287 21.609-15.059 46.489-30.99 64.348-14.529 16.289-36.712 24.088-58.691 24.087-4.007 0-8.007-.259-11.952-.773" style="fill:url(#c);stroke:none" transform="matrix(1.3333333 0 0 -1.3333333 0 666.66667)"/>
  <path d="M732.311 384.12c-23.054-6.367-36.264-32.003-36.733-55.915-.355-18.051 3.618-39.527-10.075-51.295-15.23-13.088-38.258-2.564-58.336-2.144-26.094.547-50.997-20.104-55.291-45.848-4.381-26.272 9.969-55.971-4.207-78.521-5.651-8.987-15.037-14.997-24.751-19.277-15.332-6.753-32.244-9.889-48.976-9.083-22.718 1.096-44.517 9.274-67.104 11.942-28.242 3.338-57.177-2.134-83.21-13.581-13.043-5.733-25.597-13.075-35.484-23.333C284.078 72.098 279.938 35.46 279.803 0H750v386.025c-5.996-.008-11.945-.319-17.689-1.905" style="fill:url(#d);stroke:none" transform="matrix(1.3333333 0 0 -1.3333333 0 666.66667)"/>
  <path d="M741.108 219.881c-15.231-13.089-38.259-2.564-58.337-2.145-26.093.547-50.998-20.104-55.29-45.849-4.382-26.271 9.967-55.97-4.209-78.519-5.65-8.987-15.035-14.998-24.75-19.277-15.332-6.754-32.243-9.889-48.978-9.083-22.716 1.094-44.515 9.273-67.102 11.941-28.242 3.338-57.178-2.135-83.211-13.58-13.042-5.734-25.596-13.075-35.484-23.333-10.93-11.339-17.749-25.085-21.95-40.036H750v235.517c-1.391-6.045-4.026-11.454-8.892-15.636" style="fill:url(#e);stroke:none" transform="matrix(1.3333333 0 0 -1.3333333 0 666.66667)"/>
  <g clip-path="url(#f)" transform="matrix(1.3333333 0 0 -1.3333333 0 666.66667)">
    <g clip-path="url(#g)">
      <path d="M0 0c1.483 22.771 3.418 45.893 10.406 67.745 7.244 22.654 20.6 42.262 41.53 54.23 11.59 6.628 24.42 11.133 37.339 14.371 13.608 3.409 27.634 5.211 41.667 5.088 14.059-.124 27.829-2.403 41.322-6.281 13.124-3.772 25.937-8.6 39.217-11.829 13.118-3.188 26.552-4.396 39.999-2.914 12.468 1.374 25.327 4.649 36.28 10.921 9.733 5.573 16.885 14.009 20.014 24.844 3.101 10.738 2.592 22.16 2.333 33.209-.273 11.636-.617 23.755 3.207 34.919 3.617 10.558 10.794 19.719 19.774 26.275 8.805 6.429 19.443 10.478 30.372 10.956 12.104.53 23.716-3.855 35.387-6.38 10.258-2.218 21.588-3.197 30.588 3.259 7.935 5.691 11.116 15.101 12.491 24.39 1.553 10.483 1.023 21.211 3.009 31.633 2.081 10.92 6.695 21.534 13.767 30.156 6.771 8.255 15.979 14.577 26.597 16.516 13.561 2.476 27.153-1.832 40.762-1.066.898.05 6.315.71 6.18 1.008.09-.199-.064-.745-.083-.96-.124-1.419-.248-2.838-.372-4.256-1.276-14.624-2.553-29.247-3.829-43.871-2.146-24.592-4.293-49.184-6.439-73.775-2.555-29.258-5.109-58.516-7.663-87.774-2.477-28.379-4.954-56.759-7.431-85.138-1.922-22.016-3.844-44.032-5.765-66.047-.604-6.924-1.209-13.848-1.813-20.771-.185-2.119-.37-4.237-.555-6.356-.089-1.014-.455-2.369-.295-3.38.117-.744.393-.183.032-.105-.792.172-1.715.11-2.52.161-4.059.259-8.117.517-12.176.776-16.267 1.037-32.534 2.073-48.801 3.109-24.053 1.533-48.108 3.066-72.162 4.599-28.686 1.827-57.374 3.655-86.061 5.483-29.568 1.884-59.136 3.769-88.704 5.652-27.362 1.744-54.724 3.487-82.085 5.231-21.418 1.364-42.837 2.729-64.255 4.094L4.394.071c-1.59.101-3.18.202-4.769.304-.482.03-.48-.72 0-.75 4.452-.284 8.905-.567 13.357-.852 12.117-.771 24.233-1.544 36.349-2.315 17.845-1.138 35.69-2.274 53.534-3.411 21.848-1.393 43.696-2.784 65.542-4.177 23.933-1.524 47.865-3.05 71.798-4.574 24.07-1.534 48.141-3.067 72.21-4.602 22.527-1.435 45.055-2.87 67.581-4.305 19.034-1.213 38.067-2.426 57.102-3.639l40.922-2.607c6.456-.412 13.001-1.182 19.472-1.242.279-.002.558-.035.835-.052.215-.014.359.183.375.375.307 3.504.612 7.008.918 10.512.832 9.537 1.665 19.074 2.497 28.611 1.232 14.104 2.463 28.209 3.694 42.314 1.502 17.209 3.004 34.417 4.506 51.626 1.638 18.76 3.276 37.521 4.913 56.28 1.661 19.027 3.322 38.053 4.982 57.079 1.55 17.746 3.099 35.49 4.647 53.234 1.309 14.998 2.619 29.996 3.927 44.994.943 10.788 1.884 21.575 2.825 32.363.292 3.346.584 6.691.876 10.036.15 1.709.547 3.585.463 5.302-.011.214.039.446.058.66.022.262-.257.404-.475.362-14.983-2.847-29.971 2.53-44.988.611-10.95-1.4-20.662-7.201-27.93-15.394-7.395-8.337-12.375-18.758-14.86-29.586-2.605-11.351-1.854-23.124-3.607-34.595-1.834-11.996-7.26-23.717-19.85-27.332-12.883-3.7-26.795 1.85-39.284 4.756-11.481 2.67-22.732 3.155-33.998-.783-10.442-3.648-19.844-10.304-26.718-18.973-7.106-8.961-10.669-19.498-11.657-30.814-1.116-12.768.415-25.582-.297-38.362-.757-13.576-4.868-26.47-15.938-35.122-11.656-9.111-27.457-13.248-41.926-14.843-15.394-1.697-30.579.253-45.446 4.358-14.421 3.981-28.419 9.416-42.998 12.84-28.806 6.766-59.21 4.178-87.151-5.137-12.704-4.235-25.137-9.874-35.68-18.246-9.279-7.368-16.729-16.775-22.282-27.211C6.623 66.525 2.824 42.088.65 18.408.088 12.279-.35 6.141-.75 0c-.031-.482.719-.48.75 0" style="fill:#fff;fill-opacity:1;fill-rule:nonzero;stroke:none" transform="translate(357.418 -92.5313)"/>
    </g>
    <g clip-path="url(#h)">
      <path d="M0 0c1.483 22.772 3.418 45.893 10.406 67.746 7.244 22.653 20.6 42.262 41.53 54.23 11.59 6.627 24.42 11.133 37.339 14.371 13.608 3.409 27.634 5.211 41.667 5.087 14.059-.123 27.829-2.402 41.322-6.28 13.124-3.772 25.937-8.6 39.217-11.829 13.118-3.189 26.552-4.397 39.999-2.915 12.468 1.375 25.327 4.65 36.28 10.921 9.733 5.573 16.885 14.01 20.014 24.845 3.101 10.738 2.592 22.16 2.333 33.208-.273 11.637-.617 23.756 3.207 34.92 3.617 10.558 10.794 19.719 19.774 26.275 8.805 6.428 19.443 10.478 30.372 10.956 12.104.53 23.716-3.855 35.387-6.38 10.258-2.218 21.588-3.198 30.588 3.259 7.935 5.691 11.116 15.101 12.491 24.389 1.553 10.484 1.023 21.212 3.009 31.634 2.081 10.919 6.695 21.534 13.767 30.156 6.771 8.255 15.979 14.577 26.597 16.515 13.561 2.477 27.153-1.832 40.762-1.066.898.051 6.315.711 6.18 1.009.09-.199-.064-.745-.083-.96l-.372-4.257c-1.276-14.623-2.553-29.247-3.829-43.87l-6.439-73.776c-2.555-29.257-5.109-58.515-7.663-87.773-2.477-28.38-4.954-56.759-7.431-85.138-1.922-22.016-3.844-44.032-5.765-66.048-.604-6.924-1.209-13.847-1.813-20.771-.185-2.118-.37-4.237-.555-6.355-.089-1.014-.455-2.37-.295-3.38.117-.744.392-.183.032-.105-.792.172-1.715.11-2.52.16l-12.176.777c-16.267 1.036-32.534 2.073-48.801 3.109-24.053 1.532-48.108 3.065-72.162 4.598-28.686 1.828-57.374 3.656-86.061 5.484-29.568 1.884-59.136 3.768-88.704 5.651-27.363 1.745-54.724 3.488-82.085 5.231-21.418 1.365-42.837 2.729-64.255 4.095-12.29.783-24.58 1.566-36.871 2.348C2.804.173 1.214.274-.375.375c-.482.031-.48-.719 0-.75 4.452-.283 8.905-.567 13.357-.851 12.117-.772 24.233-1.544 36.349-2.316 17.845-1.137 35.69-2.273 53.534-3.411 21.848-1.392 43.696-2.784 65.542-4.176 23.933-1.525 47.865-3.05 71.798-4.575 24.07-1.533 48.141-3.067 72.21-4.601 22.527-1.435 45.054-2.871 67.581-4.306 19.034-1.213 38.067-2.425 57.101-3.638 13.641-.869 27.282-1.739 40.923-2.607 6.455-.413 13.001-1.182 19.472-1.242.278-.003.558-.036.835-.053.215-.014.359.184.375.375.307 3.505.612 7.008.918 10.513.832 9.536 1.665 19.074 2.497 28.61 1.232 14.105 2.463 28.21 3.694 42.315 1.502 17.208 3.004 34.417 4.506 51.626 1.638 18.76 3.276 37.52 4.912 56.28 1.662 19.027 3.323 38.053 4.983 57.079 1.549 17.745 3.099 35.489 4.647 53.234 1.309 14.998 2.619 29.996 3.927 44.994.943 10.787 1.884 21.575 2.825 32.362.292 3.346.584 6.691.876 10.036.15 1.709.547 3.585.463 5.302-.011.215.039.446.058.661.022.261-.257.403-.475.362-14.983-2.847-29.971 2.53-44.988.61-10.95-1.399-20.662-7.2-27.93-15.394-7.395-8.337-12.375-18.758-14.86-29.585-2.606-11.352-1.854-23.124-3.607-34.596-1.834-11.995-7.26-23.716-19.85-27.331-12.883-3.7-26.795 1.85-39.284 4.755-11.481 2.671-22.732 3.156-33.998-.782-10.442-3.649-19.844-10.304-26.718-18.973-7.106-8.961-10.669-19.498-11.657-30.815-1.116-12.768.414-25.582-.297-38.362-.757-13.575-4.868-26.469-15.938-35.121-11.656-9.111-27.457-13.248-41.926-14.844-15.394-1.697-30.579.254-45.446 4.358-14.421 3.981-28.419 9.417-42.998 12.84-28.806 6.766-59.21 4.178-87.151-5.136-12.704-4.236-25.137-9.875-35.68-18.246-9.279-7.368-16.729-16.775-22.282-27.211C6.623 66.526 2.824 42.088.65 18.408.088 12.28-.35 6.142-.75 0c-.031-.481.719-.479.75 0" style="fill:#fff;fill-opacity:1;fill-rule:nonzero;stroke:none" transform="translate(381.3672 -118.1758)"/>
    </g>
    <g clip-path="url(#i)">
      <path d="M0 0c1.484 22.771 3.418 45.893 10.406 67.745 7.244 22.654 20.6 42.262 41.53 54.23 11.59 6.628 24.42 11.133 37.34 14.371 13.607 3.409 27.633 5.211 41.667 5.088 14.059-.124 27.828-2.403 41.321-6.281 13.124-3.772 25.937-8.6 39.218-11.829 13.117-3.189 26.551-4.397 39.998-2.915 12.468 1.375 25.327 4.65 36.28 10.922 9.733 5.573 16.886 14.009 20.014 24.844 3.102 10.738 2.592 22.16 2.333 33.209-.272 11.636-.617 23.755 3.207 34.919 3.617 10.558 10.794 19.719 19.774 26.275 8.805 6.429 19.443 10.478 30.372 10.956 12.104.53 23.716-3.855 35.387-6.38 10.258-2.218 21.588-3.198 30.589 3.259 7.934 5.691 11.115 15.101 12.49 24.39 1.553 10.483 1.023 21.211 3.01 31.633 2.08 10.92 6.694 21.534 13.766 30.156 6.771 8.255 15.979 14.577 26.597 16.515 13.561 2.477 27.154-1.832 40.762-1.065.898.05 6.315.71 6.181 1.008.089-.199-.065-.745-.084-.96-.124-1.419-.248-2.838-.372-4.256-1.276-14.624-2.553-29.248-3.829-43.871-2.146-24.592-4.293-49.184-6.439-73.775-2.554-29.258-5.109-58.516-7.663-87.774-2.476-28.38-4.954-56.759-7.431-85.138-1.921-22.016-3.843-44.032-5.765-66.048-.604-6.923-1.209-13.847-1.813-20.771-.185-2.118-.369-4.236-.555-6.355-.088-1.014-.455-2.369-.295-3.38.117-.744.393-.183.032-.105-.792.172-1.714.11-2.52.161-4.059.258-8.117.517-12.175.776-16.268 1.036-32.534 2.073-48.802 3.109-24.053 1.533-48.107 3.066-72.161 4.599-28.687 1.827-57.375 3.655-86.061 5.483-29.569 1.884-59.137 3.768-88.705 5.652-27.362 1.744-54.723 3.487-82.085 5.23-21.418 1.365-42.836 2.729-64.255 4.095L4.394.071C2.804.172 1.215.273-.375.375c-.481.03-.479-.72 0-.75 4.453-.284 8.905-.567 13.357-.852 12.117-.771 24.233-1.544 36.349-2.315 17.845-1.138 35.69-2.274 53.534-3.411 21.848-1.393 43.696-2.784 65.543-4.177 23.933-1.524 47.864-3.05 71.797-4.574 24.07-1.534 48.141-3.067 72.211-4.602 22.526-1.435 45.054-2.871 67.58-4.306 19.034-1.212 38.067-2.425 57.102-3.638l40.922-2.607c6.456-.412 13.001-1.182 19.473-1.242.278-.002.558-.035.835-.052.214-.014.358.183.375.375.306 3.504.611 7.008.917 10.512.833 9.537 1.665 19.074 2.497 28.611 1.232 14.104 2.463 28.209 3.695 42.314 1.501 17.209 3.003 34.417 4.505 51.626 1.638 18.76 3.276 37.521 4.913 56.28 1.661 19.027 3.322 38.053 4.983 57.079 1.549 17.745 3.098 35.49 4.646 53.234 1.309 14.998 2.619 29.996 3.928 44.994.942 10.788 1.883 21.575 2.824 32.363.292 3.345.584 6.691.876 10.035.15 1.709.548 3.585.463 5.303-.01.214.039.446.058.66.023.262-.257.404-.475.362-14.983-2.847-29.971 2.531-44.987.611-10.95-1.4-20.663-7.201-27.931-15.395-7.395-8.336-12.374-18.758-14.859-29.585-2.606-11.352-1.854-23.124-3.608-34.595-1.834-11.996-7.26-23.717-19.85-27.332-12.883-3.7-26.794 1.85-39.283 4.756-11.482 2.67-22.733 3.155-33.999-.783-10.442-3.648-19.844-10.304-26.718-18.973-7.106-8.961-10.669-19.498-11.657-30.814-1.116-12.768.415-25.583-.297-38.362-.756-13.576-4.868-26.47-15.938-35.122-11.656-9.111-27.456-13.248-41.926-14.844-15.394-1.696-30.579.254-45.445 4.359-14.422 3.98-28.419 9.416-42.998 12.84-28.807 6.766-59.21 4.177-87.152-5.137-12.704-4.236-25.137-9.875-35.68-18.246-9.279-7.368-16.729-16.775-22.282-27.211C6.623 66.525 2.824 42.087.651 18.408.088 12.279-.35 6.141-.75 0c-.031-.482.719-.48.75 0" style="fill:#fff;fill-opacity:1;fill-rule:nonzero;stroke:none" transform="translate(400.0771 -152.4141)"/>
    </g>
    <g clip-path="url(#j)">
      <path d="M0 0c1.483 22.772 3.418 45.893 10.406 67.746 7.244 22.653 20.6 42.262 41.53 54.229 11.59 6.628 24.42 11.134 37.34 14.372 13.607 3.409 27.633 5.21 41.667 5.087 14.059-.123 27.828-2.402 41.321-6.281 13.124-3.771 25.937-8.599 39.218-11.829 13.117-3.188 26.551-4.396 39.998-2.914 12.468 1.375 25.327 4.65 36.28 10.921 9.733 5.573 16.886 14.01 20.014 24.845 3.102 10.738 2.592 22.159 2.333 33.208-.272 11.637-.617 23.756 3.207 34.92 3.617 10.558 10.794 19.719 19.774 26.275 8.805 6.428 19.443 10.477 30.372 10.956 12.104.529 23.716-3.856 35.387-6.38 10.258-2.219 21.588-3.198 30.589 3.258 7.934 5.692 11.115 15.102 12.49 24.39 1.553 10.484 1.023 21.212 3.01 31.633 2.08 10.92 6.694 21.535 13.766 30.157 6.771 8.255 15.979 14.577 26.597 16.515 13.561 2.477 27.153-1.832 40.762-1.066.898.051 6.315.711 6.181 1.008.089-.198-.065-.744-.084-.96-.124-1.418-.248-2.837-.372-4.256-1.276-14.623-2.553-29.247-3.829-43.871-2.146-24.591-4.293-49.183-6.439-73.775-2.554-29.257-5.109-58.515-7.663-87.774-2.476-28.379-4.954-56.758-7.431-85.138-1.922-22.015-3.843-44.032-5.765-66.047-.604-6.924-1.209-13.847-1.813-20.771-.185-2.118-.37-4.237-.555-6.355-.089-1.014-.455-2.37-.295-3.38.117-.745.393-.183.032-.105-.792.172-1.714.11-2.52.16-4.059.259-8.117.518-12.175.777-16.268 1.036-32.535 2.072-48.802 3.109-24.053 1.532-48.107 3.065-72.161 4.598-28.687 1.828-57.375 3.656-86.061 5.483-29.569 1.885-59.137 3.769-88.705 5.652-27.362 1.744-54.723 3.488-82.085 5.231-21.418 1.365-42.836 2.729-64.255 4.095-12.29.782-24.58 1.565-36.87 2.348-1.59.102-3.179.203-4.769.304-.481.031-.48-.719 0-.75 4.452-.283 8.905-.567 13.357-.851 12.117-.772 24.233-1.544 36.349-2.316 17.845-1.137 35.69-2.273 53.534-3.411 21.848-1.392 43.696-2.784 65.542-4.176 23.933-1.525 47.865-3.05 71.798-4.575 24.07-1.533 48.141-3.067 72.21-4.601 22.527-1.435 45.055-2.871 67.581-4.306 19.034-1.213 38.067-2.426 57.102-3.639l40.922-2.607c6.456-.412 13.001-1.181 19.473-1.241.278-.003.558-.036.834-.053.215-.014.359.183.375.375.307 3.505.612 7.008.918 10.513.833 9.536 1.665 19.074 2.497 28.61 1.232 14.105 2.463 28.21 3.695 42.314l4.505 51.627c1.638 18.76 3.276 37.52 4.913 56.28 1.661 19.027 3.322 38.053 4.983 57.079 1.549 17.745 3.098 35.489 4.646 53.234 1.309 14.998 2.619 29.996 3.928 44.994.942 10.787 1.883 21.575 2.824 32.362.292 3.346.584 6.691.876 10.036.15 1.709.548 3.585.463 5.302-.011.215.039.446.058.661.023.261-.257.403-.475.362-14.983-2.848-29.971 2.53-44.987.61-10.95-1.399-20.663-7.2-27.931-15.394-7.395-8.337-12.375-18.758-14.859-29.585-2.606-11.352-1.854-23.125-3.608-34.596-1.834-11.996-7.26-23.716-19.85-27.332-12.883-3.699-26.795 1.851-39.283 4.756-11.482 2.671-22.733 3.156-33.999-.782-10.442-3.649-19.844-10.304-26.718-18.973-7.106-8.961-10.669-19.498-11.657-30.815-1.116-12.768.415-25.582-.297-38.362-.756-13.575-4.868-26.469-15.938-35.121-11.656-9.111-27.456-13.248-41.926-14.844-15.394-1.697-30.579.253-45.445 4.358-14.422 3.981-28.419 9.417-42.998 12.84-28.807 6.766-59.21 4.178-87.152-5.136-12.704-4.236-25.137-9.875-35.68-18.246-9.279-7.369-16.729-16.775-22.282-27.211C6.623 66.526 2.824 42.088.65 18.408.088 12.28-.35 6.142-.75 0c-.031-.481.719-.479.75 0" style="fill:#fff;fill-opacity:1;fill-rule:nonzero;stroke:none" transform="translate(424.0264 -178.0586)"/>
    </g>
  </g>
  <path d="M270.997 500c-.326-8.983.102-18.004 1.209-26.9 3.577-28.722 13.941-56.263 27.317-81.936 9.716-14.203 21.476-26.8 36.439-35.021 10.83-5.949 22.899-9.34 35.059-11.529 41.121-7.405 84.572-1.214 121.989 17.379 13.907 6.91 27.461 15.63 42.871 17.557 30.564 3.821 58.27-20.724 71.509-48.534.685-1.439 1.346-2.893 1.987-4.358 4.702-5.966 8.728-12.473 11.915-19.168 6.028-12.662 10.161-26.445 15.756-39.282.436-.519.881-1.034 1.334-1.542 17.175-19.256 45.055-26.648 70.643-23.312 14.373 1.873 28.091 6.744 40.975 13.445V500Z" style="fill:url(#k);stroke:none" transform="matrix(1.3333333 0 0 -1.3333333 0 666.66667)"/>
  <path d="M0 500V154.83c4.638.149 9.226.612 13.691 1.845 23.053 6.366 36.263 32.003 36.732 55.916.356 18.049-3.617 39.526 10.075 51.293 15.231 13.089 38.259 2.565 58.336 2.144 26.094-.546 50.998 20.104 55.292 45.849 4.381 26.272-9.969 55.971 4.207 78.52 5.649 8.987 15.036 14.998 24.75 19.278 15.333 6.753 32.244 9.89 48.977 9.082 22.717-1.095 44.517-9.272 67.104-11.942 28.241-3.337 57.176 2.136 83.21 13.581 13.042 5.734 25.597 13.075 35.484 23.334 14.788 15.341 22.053 35.095 25.487 56.27z" style="fill:url(#l);stroke:none" transform="matrix(1.3333333 0 0 -1.3333333 0 666.66667)"/>
  <path d="M0 500V300.682c.633.681 1.313 1.336 2.043 1.964 15.23 13.087 38.258 2.564 58.336 2.143 26.094-.546 50.998 20.105 55.291 45.849 4.381 26.272-9.969 55.971 4.207 78.52 5.65 8.987 15.036 14.998 24.751 19.278 15.332 6.753 32.243 9.889 48.977 9.083 22.717-1.096 44.517-9.273 67.103-11.942 28.242-3.338 57.177 2.134 83.211 13.581 13.042 5.733 25.597 13.075 35.483 23.332 5.151 5.343 9.39 11.224 12.871 17.51z" style="fill:url(#m);stroke:none" transform="matrix(1.3333333 0 0 -1.3333333 0 666.66667)"/>
  <g clip-path="url(#n)" transform="matrix(1.3333333 0 0 -1.3333333 0 666.66667)">
    <g clip-path="url(#o)">
      <path d="M0 0c-1.483-22.771-3.418-45.893-10.406-67.746-7.244-22.653-20.6-42.261-41.53-54.229-11.59-6.628-24.42-11.133-37.339-14.371-13.608-3.409-27.634-5.211-41.667-5.087-14.059.123-27.828 2.401-41.322 6.28-13.124 3.772-25.937 8.6-39.218 11.829-13.116 3.189-26.551 4.397-39.998 2.914-12.468-1.374-25.327-4.649-36.28-10.921-9.733-5.573-16.885-14.009-20.014-24.844-3.101-10.739-2.592-22.16-2.333-33.208.273-11.637.617-23.756-3.207-34.92-3.617-10.559-10.794-19.72-19.773-26.276-8.805-6.427-19.444-10.477-30.372-10.955-12.105-.53-23.717 3.855-35.387 6.38-10.259 2.218-21.588 3.197-30.589-3.259-7.935-5.691-11.115-15.101-12.491-24.39-1.552-10.484-1.023-21.211-3.009-31.633-2.081-10.92-6.695-21.534-13.767-30.156-6.771-8.255-15.979-14.577-26.597-16.516-13.561-2.476-27.154 1.833-40.762 1.066-.898-.051-6.314-.71-6.181-1.008-.089.199.065.745.084.96.124 1.419.248 2.838.372 4.256 1.276 14.624 2.553 29.248 3.829 43.871 2.146 24.592 4.293 49.183 6.44 73.775l7.662 87.774c2.477 28.379 4.954 56.758 7.431 85.138 1.922 22.016 3.843 44.032 5.765 66.048.605 6.923 1.209 13.847 1.813 20.77.185 2.119.37 4.238.555 6.356.088 1.014.455 2.369.295 3.38-.117.744-.392.182-.032.104.792-.172 1.714-.109 2.52-.16 4.059-.259 8.117-.517 12.175-.776 16.268-1.036 32.535-2.073 48.802-3.11 24.054-1.532 48.108-3.065 72.161-4.598 28.688-1.827 57.375-3.655 86.062-5.483 29.568-1.884 59.137-3.768 88.704-5.652 27.362-1.744 54.724-3.487 82.085-5.23 21.418-1.365 42.837-2.73 64.255-4.095l36.87-2.349c1.59-.101 3.18-.202 4.769-.304.482-.031.48.72 0 .75-4.452.284-8.905.567-13.357.851-12.117.772-24.233 1.544-36.349 2.316-17.845 1.137-35.69 2.274-53.534 3.412-21.848 1.391-43.696 2.783-65.543 4.175-23.932 1.525-47.865 3.051-71.797 4.576-24.07 1.533-48.14 3.067-72.211 4.601-22.526 1.435-45.053 2.87-67.58 4.306-19.034 1.212-38.067 2.425-57.101 3.638l-40.922 2.607c-6.456.412-13.002 1.182-19.474 1.241-.277.003-.557.036-.835.053-.214.014-.358-.183-.375-.375-.305-3.504-.611-7.008-.917-10.512-.833-9.537-1.665-19.074-2.497-28.61-1.232-14.105-2.463-28.21-3.694-42.315-1.502-17.209-3.004-34.418-4.506-51.626-1.638-18.76-3.275-37.521-4.913-56.28-1.661-19.027-3.321-38.054-4.982-57.08-1.549-17.744-3.098-35.489-4.647-53.233-1.309-14.998-2.618-29.996-3.928-44.994-.941-10.788-1.883-21.575-2.824-32.363-.292-3.346-.584-6.691-.876-10.035-.15-1.71-.548-3.586-.463-5.303.011-.214-.039-.446-.058-.66-.023-.262.257-.404.475-.362 14.984 2.847 29.971-2.531 44.988-.611 10.95 1.4 20.662 7.2 27.93 15.394 7.395 8.337 12.374 18.759 14.86 29.586 2.605 11.352 1.853 23.124 3.607 34.595 1.834 11.996 7.26 23.716 19.85 27.332 12.883 3.7 26.795-1.851 39.284-4.756 11.481-2.67 22.732-3.155 33.998.782 10.442 3.649 19.844 10.305 26.718 18.974 7.106 8.961 10.669 19.498 11.657 30.814 1.116 12.768-.414 25.582.298 38.362.756 13.576 4.867 26.47 15.937 35.122 11.656 9.111 27.456 13.248 41.926 14.843 15.394 1.698 30.579-.253 45.445-4.357 14.422-3.982 28.419-9.417 42.998-12.841 28.807-6.766 59.211-4.178 87.152 5.137 12.704 4.235 25.137 9.875 35.68 18.246 9.279 7.368 16.729 16.774 22.282 27.211C-6.623-66.525-2.824-42.087-.65-18.408-.088-12.28.35-6.141.75 0 .781.482.031.48 0 0" style="fill:#fff;fill-opacity:1;fill-rule:nonzero;stroke:none" transform="translate(408.9453 599.3828)"/>
    </g>
    <g clip-path="url(#p)">
      <path d="M0 0c-1.483-22.772-3.418-45.893-10.406-67.746-7.244-22.653-20.6-42.261-41.53-54.229-11.59-6.628-24.42-11.133-37.339-14.371-13.608-3.409-27.634-5.211-41.667-5.088-14.059.124-27.828 2.402-41.322 6.281-13.124 3.772-25.937 8.6-39.218 11.829-13.116 3.189-26.551 4.397-39.998 2.914-12.468-1.374-25.327-4.649-36.28-10.921-9.733-5.573-16.885-14.009-20.014-24.844-3.101-10.739-2.592-22.16-2.333-33.209.273-11.636.617-23.755-3.207-34.919-3.617-10.559-10.794-19.72-19.773-26.276-8.805-6.427-19.444-10.477-30.372-10.956-12.105-.529-23.717 3.856-35.387 6.38-10.259 2.219-21.588 3.198-30.589-3.258-7.935-5.692-11.115-15.101-12.491-24.39-1.552-10.484-1.023-21.211-3.009-31.633-2.081-10.92-6.695-21.534-13.767-30.156-6.771-8.255-15.978-14.577-26.597-16.516-13.561-2.476-27.154 1.832-40.762 1.066-.898-.05-6.314-.71-6.181-1.008-.089.199.065.745.084.96.124 1.419.248 2.838.372 4.256 1.276 14.624 2.553 29.248 3.829 43.871 2.147 24.591 4.293 49.183 6.44 73.775l7.662 87.774c2.477 28.379 4.954 56.758 7.431 85.138 1.922 22.016 3.843 44.032 5.765 66.048.605 6.923 1.209 13.847 1.813 20.77.185 2.119.37 4.237.555 6.356.088 1.014.455 2.369.295 3.38-.117.744-.392.182-.032.104.792-.172 1.714-.109 2.52-.16 4.059-.259 8.117-.517 12.175-.776 16.268-1.036 32.535-2.073 48.802-3.11l72.161-4.598c28.688-1.827 57.375-3.655 86.062-5.483 29.568-1.884 59.137-3.768 88.704-5.652 27.362-1.744 54.724-3.487 82.085-5.23 21.418-1.365 42.837-2.73 64.255-4.095 12.29-.783 24.58-1.566 36.871-2.349C-2.804-.172-1.214-.274.375-.375c.482-.031.48.719 0 .75-4.452.284-8.905.567-13.357.851l-36.349 2.316c-17.845 1.137-35.69 2.274-53.534 3.411-21.848 1.392-43.695 2.784-65.543 4.176-23.932 1.525-47.864 3.05-71.797 4.575-24.07 1.534-48.14 3.068-72.211 4.602-22.526 1.435-45.053 2.87-67.58 4.305l-57.101 3.639-40.922 2.607c-6.456.412-13.002 1.182-19.474 1.241-.277.003-.557.036-.835.053-.214.014-.358-.183-.375-.375-.305-3.504-.611-7.008-.917-10.513-.833-9.536-1.665-19.073-2.497-28.61-1.232-14.104-2.463-28.209-3.694-42.314l-4.506-51.627c-1.638-18.759-3.275-37.52-4.913-56.28-1.661-19.026-3.321-38.053-4.982-57.079-1.549-17.744-3.098-35.489-4.647-53.233-1.309-14.998-2.618-29.996-3.928-44.994-.941-10.788-1.883-21.575-2.824-32.363-.292-3.346-.584-6.691-.876-10.036-.15-1.709-.548-3.585-.463-5.302.011-.214-.039-.446-.058-.66-.023-.262.257-.404.475-.362 14.984 2.847 29.971-2.531 44.988-.611 10.95 1.4 20.662 7.201 27.93 15.394 7.395 8.337 12.374 18.759 14.86 29.586 2.605 11.352 1.853 23.124 3.607 34.595 1.834 11.996 7.26 23.716 19.85 27.332 12.883 3.7 26.795-1.851 39.284-4.756 11.481-2.67 22.732-3.155 33.998.782 10.442 3.649 19.844 10.305 26.719 18.974 7.105 8.961 10.668 19.498 11.656 30.814 1.116 12.768-.414 25.582.298 38.362.756 13.576 4.867 26.469 15.937 35.122 11.656 9.111 27.456 13.248 41.926 14.843 15.394 1.697 30.579-.253 45.445-4.358 14.422-3.981 28.419-9.416 42.998-12.84 28.807-6.766 59.211-4.178 87.152 5.137 12.704 4.235 25.137 9.875 35.68 18.246 9.279 7.368 16.729 16.774 22.282 27.211C-6.623-66.526-2.824-42.088-.65-18.408-.088-12.28.35-6.141.75 0 .781.482.031.48 0 0" style="fill:#fff;fill-opacity:1;fill-rule:nonzero;stroke:none" transform="translate(384.9961 625.0269)"/>
    </g>
    <g clip-path="url(#q)">
      <path d="M0 0c-1.484-22.772-3.418-45.893-10.406-67.746-7.244-22.653-20.6-42.262-41.53-54.229-11.59-6.628-24.42-11.134-37.34-14.371-13.607-3.41-27.633-5.211-41.667-5.088-14.058.124-27.828 2.402-41.321 6.28-13.124 3.773-25.937 8.6-39.218 11.829-13.117 3.189-26.551 4.397-39.998 2.915-12.468-1.375-25.327-4.649-36.28-10.921-9.733-5.573-16.885-14.009-20.014-24.844-3.101-10.739-2.593-22.16-2.333-33.209.273-11.637.616-23.755-3.207-34.919-3.617-10.559-10.794-19.72-19.774-26.276-8.805-6.428-19.443-10.477-30.372-10.956-12.104-.53-23.716 3.856-35.387 6.38-10.258 2.219-21.588 3.198-30.588-3.258-7.935-5.692-11.116-15.102-12.491-24.39-1.553-10.484-1.024-21.211-3.009-31.633-2.081-10.92-6.695-21.534-13.767-30.156-6.771-8.256-15.979-14.577-26.597-16.516-13.561-2.476-27.154 1.832-40.762 1.066-.898-.051-6.315-.71-6.181-1.008-.09.199.065.745.084.96.124 1.419.247 2.837.371 4.256 1.277 14.624 2.554 29.247 3.83 43.871 2.146 24.591 4.293 49.183 6.439 73.775 2.555 29.257 5.108 58.516 7.662 87.773 2.478 28.38 4.955 56.759 7.432 85.138 1.922 22.016 3.843 44.032 5.765 66.048.604 6.924 1.209 13.848 1.813 20.771.185 2.119.37 4.237.555 6.356.088 1.014.455 2.369.295 3.38-.118.744-.392.182-.032.104.792-.172 1.714-.109 2.52-.16 4.059-.259 8.117-.518 12.175-.776 16.268-1.037 32.535-2.073 48.802-3.11 24.053-1.532 48.108-3.065 72.161-4.598 28.687-1.828 57.374-3.655 86.062-5.484 29.568-1.883 59.136-3.768 88.704-5.651 27.362-1.744 54.724-3.487 82.085-5.231 21.418-1.365 42.836-2.729 64.255-4.094l36.87-2.349c1.59-.102 3.179-.203 4.769-.304.481-.031.479.719 0 .75-4.453.284-8.905.567-13.357.851l-36.349 2.316c-17.845 1.137-35.69 2.274-53.534 3.411-21.848 1.392-43.696 2.784-65.543 4.176l-71.798 4.575c-24.069 1.534-48.14 3.067-72.21 4.601-22.526 1.436-45.054 2.871-67.581 4.306-19.033 1.213-38.067 2.426-57.101 3.639-13.64.869-27.281 1.738-40.922 2.607-6.456.412-13.001 1.181-19.473 1.241-.277.003-.557.035-.835.053-.214.014-.358-.184-.375-.375-.305-3.504-.611-7.008-.917-10.513l-2.498-28.61-3.693-42.315c-1.502-17.208-3.004-34.417-4.506-51.626-1.638-18.76-3.276-37.52-4.913-56.28l-4.982-57.079c-1.549-17.745-3.099-35.489-4.647-53.233l-3.928-44.995c-.942-10.787-1.883-21.575-2.824-32.362-.293-3.346-.585-6.691-.877-10.036-.149-1.709-.547-3.585-.462-5.302.01-.215-.039-.446-.058-.661-.023-.261.257-.403.475-.362 14.983 2.848 29.971-2.53 44.988-.61 10.95 1.4 20.662 7.2 27.93 15.394 7.395 8.337 12.374 18.758 14.86 29.586 2.605 11.351 1.853 23.123 3.607 34.595 1.834 11.996 7.26 23.716 19.85 27.332 12.882 3.7 26.795-1.851 39.284-4.756 11.481-2.67 22.731-3.155 33.998.782 10.441 3.649 19.844 10.305 26.718 18.974 7.106 8.961 10.669 19.498 11.657 30.814 1.115 12.768-.415 25.582.297 38.362.757 13.576 4.868 26.469 15.938 35.122 11.656 9.11 27.456 13.248 41.926 14.843 15.394 1.697 30.578-.254 45.445-4.358 14.422-3.981 28.419-9.417 42.998-12.84 28.807-6.766 59.21-4.178 87.152 5.137 12.704 4.235 25.137 9.874 35.68 18.246 9.279 7.367 16.729 16.774 22.282 27.211C-6.623-66.526-2.824-42.088-.651-18.408-.088-12.28.35-6.141.75 0 .781.481.031.479 0 0" style="fill:#fff;fill-opacity:1;fill-rule:nonzero;stroke:none" transform="translate(366.2861 659.2661)"/>
    </g>
    <g clip-path="url(#r)">
      <path d="M0 0c-1.483-22.771-3.418-45.893-10.406-67.746-7.244-22.653-20.6-42.261-41.53-54.229-11.59-6.628-24.42-11.133-37.34-14.371-13.607-3.409-27.633-5.211-41.667-5.087-14.058.123-27.828 2.401-41.321 6.28-13.124 3.772-25.937 8.6-39.218 11.829-13.117 3.189-26.551 4.397-39.998 2.914-12.468-1.374-25.327-4.649-36.28-10.921-9.733-5.573-16.885-14.009-20.014-24.844-3.101-10.739-2.592-22.16-2.333-33.208.273-11.637.616-23.756-3.207-34.92-3.617-10.558-10.794-19.72-19.774-26.275-8.805-6.428-19.443-10.478-30.372-10.956-12.104-.53-23.716 3.855-35.387 6.38-10.258 2.218-21.587 3.197-30.588-3.259-7.935-5.691-11.116-15.101-12.491-24.39-1.553-10.483-1.024-21.211-3.009-31.633-2.081-10.92-6.695-21.534-13.767-30.156-6.771-8.255-15.979-14.577-26.597-16.516-13.561-2.476-27.154 1.832-40.762 1.066-.898-.05-6.315-.71-6.181-1.008-.09.199.065.745.084.96.124 1.419.248 2.838.371 4.257 1.277 14.623 2.554 29.247 3.83 43.87 2.146 24.592 4.293 49.183 6.439 73.775 2.555 29.258 5.108 58.516 7.662 87.774 2.478 28.379 4.955 56.759 7.432 85.138l5.765 66.048c.604 6.923 1.209 13.847 1.813 20.77.185 2.119.37 4.238.555 6.356.088 1.014.455 2.369.295 3.38-.118.744-.392.182-.032.104.792-.172 1.714-.109 2.52-.16 4.059-.259 8.117-.517 12.175-.776l48.802-3.11c24.053-1.532 48.108-3.065 72.161-4.597 28.687-1.828 57.374-3.656 86.062-5.484l88.704-5.652c27.362-1.744 54.724-3.487 82.085-5.23 21.418-1.365 42.836-2.73 64.255-4.095l36.87-2.349c1.59-.101 3.179-.202 4.769-.304.481-.031.479.72 0 .75-4.452.284-8.905.567-13.357.851-12.117.773-24.233 1.545-36.349 2.316-17.845 1.137-35.69 2.274-53.534 3.412-21.848 1.392-43.696 2.784-65.543 4.175-23.932 1.526-47.865 3.051-71.798 4.576-24.069 1.533-48.14 3.067-72.21 4.601-22.526 1.435-45.053 2.87-67.581 4.306-19.033 1.213-38.066 2.425-57.1 3.638l-40.923 2.607c-6.455.412-13.001 1.182-19.473 1.241-.277.003-.557.036-.835.053-.214.014-.358-.183-.375-.375-.305-3.504-.611-7.008-.917-10.512l-2.498-28.61-3.693-42.315c-1.502-17.209-3.004-34.418-4.506-51.626-1.638-18.76-3.276-37.52-4.913-56.28-1.661-19.027-3.322-38.054-4.982-57.08-1.549-17.744-3.099-35.489-4.647-53.233-1.309-14.998-2.619-29.996-3.928-44.994-.941-10.788-1.883-21.575-2.824-32.363-.292-3.345-.584-6.691-.876-10.036-.15-1.709-.548-3.585-.463-5.302.01-.214-.039-.446-.058-.66-.023-.262.257-.404.475-.362 14.983 2.847 29.971-2.53 44.988-.611 10.95 1.4 20.662 7.201 27.93 15.394 7.395 8.338 12.374 18.759 14.86 29.586 2.605 11.352 1.853 23.124 3.607 34.596 1.834 11.995 7.26 23.715 19.85 27.331 12.882 3.7 26.795-1.85 39.284-4.755 11.481-2.671 22.732-3.156 33.998.781 10.441 3.649 19.844 10.305 26.718 18.974 7.106 8.961 10.669 19.498 11.657 30.814 1.116 12.769-.414 25.582.297 38.362.757 13.576 4.868 26.47 15.938 35.122 11.656 9.111 27.456 13.248 41.926 14.843 15.394 1.698 30.578-.253 45.445-4.357 14.422-3.982 28.419-9.417 42.998-12.841 28.807-6.766 59.21-4.178 87.152 5.137 12.704 4.235 25.137 9.875 35.68 18.246 9.279 7.368 16.729 16.774 22.282 27.211C-6.623-66.525-2.824-42.087-.65-18.408-.088-12.28.35-6.141.75 0 .781.482.031.48 0 0" style="fill:#fff;fill-opacity:1;fill-rule:nonzero;stroke:none" transform="translate(342.3369 684.9097)"/>
    </g>
    <g clip-path="url(#s)">
      <path d="M0 0c0-5.512-4.469-9.979-9.98-9.979-5.512 0-9.981 4.467-9.981 9.979 0 5.513 4.469 9.98 9.981 9.98C-4.469 9.98 0 5.513 0 0Z" style="fill:none;stroke:#fff;stroke-width:1;stroke-linecap:butt;stroke-linejoin:miter;stroke-miterlimit:10;stroke-dasharray:none;stroke-opacity:1" transform="translate(626.5352 229.4648)"/>
    </g>
    <g clip-path="url(#t)">
      <path d="M0 0c0-2.067-1.676-3.743-3.742-3.743-2.068 0-3.743 1.676-3.743 3.743 0 2.066 1.675 3.742 3.743 3.742C-1.676 3.742 0 2.066 0 0Z" style="fill:none;stroke:#fff;stroke-width:1;stroke-linecap:butt;stroke-linejoin:miter;stroke-miterlimit:10;stroke-dasharray:none;stroke-opacity:1" transform="translate(610.4951 201.1289)"/>
    </g>
    <g clip-path="url(#u)">
      <path d="M0 0c0-3.347-2.713-6.06-6.06-6.06-3.346 0-6.059 2.713-6.059 6.06 0 3.346 2.713 6.059 6.059 6.059C-2.713 6.059 0 3.346 0 0Z" style="fill:none;stroke:#fff;stroke-width:1;stroke-linecap:butt;stroke-linejoin:miter;stroke-miterlimit:10;stroke-dasharray:none;stroke-opacity:1" transform="translate(139.6436 307.1685)"/>
    </g>
    <g clip-path="url(#v)">
      <path d="M0 0c0-7.185-5.825-13.01-13.01-13.01S-26.02-7.185-26.02 0s5.825 13.01 13.01 13.01S0 7.185 0 0Z" style="fill:none;stroke:#fff;stroke-width:1;stroke-linecap:butt;stroke-linejoin:miter;stroke-miterlimit:10;stroke-dasharray:none;stroke-opacity:1" transform="translate(159.604 339.4258)"/>
    </g>
    <g clip-path="url(#w)">
      <path d="M0 0c0-2.067-1.676-3.743-3.742-3.743-2.068 0-3.743 1.676-3.743 3.743s1.675 3.743 3.743 3.743C-1.676 3.743 0 2.067 0 0Z" style="fill:none;stroke:#fff;stroke-width:1;stroke-linecap:butt;stroke-linejoin:miter;stroke-miterlimit:10;stroke-dasharray:none;stroke-opacity:1" transform="translate(610.4951 377.9209)"/>
    </g>
    <g clip-path="url(#x)">
      <path d="M0 0c0-2.165-1.756-3.92-3.921-3.92S-7.842-2.165-7.842 0c0 2.166 1.756 3.921 3.921 3.921S0 2.166 0 0Z" style="fill:none;stroke:#fff;stroke-width:1;stroke-linecap:butt;stroke-linejoin:miter;stroke-miterlimit:10;stroke-dasharray:none;stroke-opacity:1" transform="translate(396.9902 457.584)"/>
    </g>
    <g clip-path="url(#y)">
      <path d="M0 0c0-3.346-2.713-6.059-6.059-6.059S-12.118-3.346-12.118 0c0 3.347 2.713 6.06 6.059 6.06S0 3.347 0 0Z" style="fill:none;stroke:#fff;stroke-width:1;stroke-linecap:butt;stroke-linejoin:miter;stroke-miterlimit:10;stroke-dasharray:none;stroke-opacity:1" transform="translate(340.6729 54.8115)"/>
    </g>
    <g clip-path="url(#z)">
      <path d="M0 0c0-2.362-1.915-4.277-4.277-4.277-2.363 0-4.278 1.915-4.278 4.277s1.915 4.277 4.278 4.277C-1.915 4.277 0 2.362 0 0Z" style="fill:none;stroke:#fff;stroke-width:1;stroke-linecap:butt;stroke-linejoin:miter;stroke-miterlimit:10;stroke-dasharray:none;stroke-opacity:1" transform="translate(260.1191 40.1982)"/>
    </g>
    <g clip-path="url(#A)">
      <path d="m0 0-18.535-33.971h37.069Z" style="fill:none;stroke:#fff;stroke-width:.5;stroke-linecap:butt;stroke-linejoin:miter;stroke-miterlimit:10;stroke-dasharray:none;stroke-opacity:1" transform="translate(297.1885 163.416)"/>
    </g>
    <g clip-path="url(#B)">
      <path d="m0 0-18.535-33.97h37.07Z" style="fill:none;stroke:#fff;stroke-width:.5;stroke-linecap:butt;stroke-linejoin:miter;stroke-miterlimit:10;stroke-dasharray:none;stroke-opacity:1" transform="translate(462.3184 439.1572)"/>
    </g>
    <g clip-path="url(#C)">
      <path d="m0 0-6.836-12.53H6.836Z" style="fill:#fff;fill-opacity:1;fill-rule:nonzero;stroke:none" transform="translate(499.3877 449.208)"/>
    </g>
    <g clip-path="url(#D)">
      <path d="m0 0-6.836-12.529H6.836Z" style="fill:#fff;fill-opacity:1;fill-rule:nonzero;stroke:none" transform="translate(255.8418 175.9453)"/>
    </g>
  </g>
</svg>
