<svg xmlns="http://www.w3.org/2000/svg" width="1110" height="490" fill="white">
  <path d="M1023.9187 329.13244c-17.642 16.51688-31.66558 20.74737-55.37428 19.94628-4.56353-.15302-11.98937-5.35562-16.04884-7.64188-27.11112-15.25674-38.75845-45.38318-37.20127-75.4106.67508-13.1145 4.70754-26.99409 9.37907-39.51452q.9001-2.42127 2.69131-4.4555 7.35384-8.36196 14.54566-16.88593c2.76334-3.27638 12.88049-7.69588 16.79594-9.21705 24.84284-9.66711 46.22931-2.38528 65.06841 15.45476q.5581.53106.5581-.23403v-53.56511a.64807398.64807398 0 0 0-.4681-.62107l-5.7156-1.57518q-.6031-.16202-.162-.61207l24.7258-24.99586q.387-.38704.387.16202l-.315 211.9472q0 .45905-.4591.45905l-17.57-.063q-.423 0-.423-.43205v-12.56543q0-.56707-.4141-.18002zm-66.84159 5.04958c5.2926 3.60941 11.20628 7.8849 17.02094 9.7031 23.10564 7.23683 41.08965-11.84535 49.29865-31.38658q.9361-2.21425.9361-4.82455.01-37.98434-.018-75.94167 0-2.42128-.9271-4.46451c-6.3548-13.96059-18.1551-28.85729-33.9249-31.66561-21.44945-3.80744-34.61795 13.30351-44.6721 29.15432q-1.66521 2.6193-2.48431 5.67965c-3.60941 13.52855-6.32772 23.73571-6.49874 36.99423-.09 6.52574-1.05312 14.60866.70208 20.90038q3.12336 11.12527 6.07569 22.28655.71109 2.7003 2.25029 5.04957 5.71565 8.704 10.59421 16.77792.63007 1.04412 1.64719 1.7372zm-339.6088-20.69337a.2610298.2610298 0 0 0 .47705-.009q24.19477-60.18087 48.30852-120.37974c1.95322-4.86056.9091-10.99926-1.18814-16.10284q-6.82278-16.53489-23.10563-24.92384-.44105-.22503-.27904-.70208l6.73277-20.1443q.15302-.45005.56707-.21603 3.5374 2.04324 7.11981 5.52663c13.33052 12.91648 21.27843 29.91042 16.82292 48.75857q-1.01712 4.30249-5.14859 14.75268-29.31634 74.15947-58.94773 148.19292-.22502.54906-.45005.009-44.42007-103.91686-88.53411-207.83372c-1.55717-3.67242-5.52663-6.72377-8.16393-9.68511q-.51306-.57607.26103-.57607h35.09501q.63907 0 .34204.56707l-3.80744 7.36284a.97211097.99011303 46.9 0 0-.036.8371zm258.86955-176.0871c8.28995-3.33038 16.36387 5.67065 13.00649 13.82558q-3.38439 8.19093-13.68157 6.92179-.44105-.054-.74708-.36904l-5.30161-5.63465q-.27903-.29703-.35104-.71108-1.68319-10.5132 7.07481-14.0326zM719.80999 330.49159c-29.08232-26.57103-34.83397-69.00187-11.85435-101.58559 33.05177-46.88636 102.98076-40.66665 127.79659 10.68422q12.41242 25.67993 4.74354 54.60923-1.70119 6.41773-7.9029 19.65825c-2.83533 6.03068-12.81747 14.76168-15.49077 17.04794q-19.92828 16.98494-46.31029 18.09207c-3.68142.15301-14.69868 1.25114-19.64924-.8371-11.63833-4.90556-22.21454-9.34307-31.33258-17.66902zm-4.64453-41.08969c6.42674 24.14976 25.43691 48.03849 51.11684 52.66502 35.49105 6.38172 57.04851-24.86984 59.39778-56.13941.40505-5.32861 1.44016-11.31429.12601-16.54389q-1.67419-6.65176-3.5194-13.25852c-6.36373-22.75459-23.30366-44.94213-47.03937-51.28785-11.66533-3.12336-21.10741-1.09813-33.76285 2.19625q-1.85421.48606-3.25837 1.80021-6.9488 6.49874-13.80758 13.07849-1.7822 1.71019-2.77232 3.93345c-4.3925 9.89213-7.65087 18.4431-8.749 27.62415q-.73808 6.1567-1.58418 17.18296c-.45005 5.93168 2.21426 12.59244 3.85244 18.74914zm155.25873-63.88929-5.02258-1.82721q-.63907-.23403-.16202-.72008l24.22177-24.27577q.36004-.36904.36004.15302-.40505 68.44381-.72908 136.90562c-.018 3.68142 4.15847 9.46008 5.94068 12.79046q.27003.50406-.30604.50406l-30.10844.34204q-.53106.009-.28803-.46805c1.7372-3.34838 6.39073-10.05415 6.40873-13.54655q.24303-54.64524.09-109.27247 0-.44105-.40504-.58507zM856.26557 393.6338a.39604521.39604521 0 0 0-.72908-.17102l-9.06404 13.84358q-.25203.36905-.49505 0l-9.03704-13.75357a.37804316.38704418 31.6 0 0-.70208.17102l-1.99822 16.92193q-.063.56707-.63908.56707h-7.82189q-.52206 0-.44105-.51306l5.59864-36.37315q.072-.48606.35104-.09l14.59066 20.88238q.34204.48606.68408 0l14.72568-21.0264q.18903-.27903.24303.054l5.59864 36.40915a.57606576.57606576 0 0 1-.56706.65708h-7.56087q-.63007 0-.70208-.62107zm25.86895.08101-2.01623 16.94894q-.063.54906-.62107.54906h-7.9299q-.41405 0-.35104-.40505l5.60764-36.45416q.081-.54006.39604-.09l14.51866 20.80138a.47705446.47705446 0 0 0 .78309 0l14.55466-20.81938q.31504-.45005.40505.099l5.50863 36.22914q.099.63907-.54007.63907h-7.54286q-.61207 0-.69308-.61207l-2.06123-16.96694a.38704418.38704418 0 0 0-.70208-.16202l-9.07304 13.83458q-.24302.36004-.47705-.009l-9.01903-13.76257a.40504624.41404727 31.7 0 0-.74709.18002zm-103.52982 6.71477-.009 7.55186a1.0261171 1.0261171 0 0 1-.51305.8911c-7.98392 4.60853-17.96606 4.09547-24.72583-2.25926-6.66076-6.26471-7.24582-17.20096-2.11524-24.42878 5.88667-8.29895 18.56912-9.69411 26.94008-4.40151a.91810481.91810481 0 0 1 .42304.77409v8.34395q0 .37805-.26103.10802c-4.77954-4.78855-12.51142-6.15671-17.84003-1.76421-4.29349 3.54641-4.69854 11.20628-.74709 15.31075 4.91456 5.11259 13.00649 3.86144 18.03806-.49505q.81009-.70208.81009.36904z" style="stroke-width:.900103"/>
  <path d="M822.33926 393.16377a18.92016 19.316205 89.3 0 1-19.08362 19.15473 18.92016 19.316205 89.3 0 1-19.54591-18.68272 18.92016 19.316205 89.3 0 1 19.08362-19.15472 18.92016 19.316205 89.3 0 1 19.54591 18.68271zm-19.31711 11.05515a10.297176 10.972253.2 0 0 10.33543-10.93625 10.297176 10.972253.2 0 0-10.25874-11.00807 10.297176 10.972253.2 0 0-10.33543 10.93624 10.297176 10.972253.2 0 0 10.25874 11.00808zm208.20515-4.3114q.01-.28803.207-.44105.2971-.23403.2971.14401v7.98392a1.6111839 1.6021829 74.5 0 1-.7741 1.37715c-11.82739 7.11082-27.6962 1.24215-29.82945-13.06049-2.56529-17.11095 16.6699-26.77805 30.11745-18.19107a1.0441192 1.0441192 0 0 1 .4861.8821v8.07392q0 .57606-.4141.18002c-5.0496-4.82455-13.66356-6.25572-18.64113-.66608-3.31238 3.72643-3.35738 10.06315-.20702 13.87959 4.78854 5.78766 13.56455 4.3835 18.75815-.16202zm-295.32375 4.10447h14.9147a.30603494.30603494 0 0 1 .30603.30603v6.58875a.30603494.30603494 0 0 1-.30603.30604h-22.7906a.30603494.30603494 0 0 1-.30604-.30604v-35.39204a.30603494.30603494 0 0 1 .30604-.30603h22.7906a.30603494.30603494 0 0 1 .30603.30603v6.58876a.30603494.30603494 0 0 1-.30603.30603h-14.9147a.30603494.30603494 0 0 0-.30604.30604v6.1387a.30603494.30603494 0 0 0 .30604.30603h13.79857a.30603494.30603494 0 0 1 .30604.30604l-.009 6.1387a.30603494.30603494 0 0 1-.30604.30603h-13.78957a.30603494.30603494 0 0 0-.30604.30604v7.48885a.30603494.30603494 0 0 0 .30604.30604zm211.53315 0h14.8967a.31503596.31503596 0 0 1 .31503.31503v6.57075a.31503596.31503596 0 0 1-.31503.31504h-22.7726a.31503596.31503596 0 0 1-.31504-.31504v-35.37403a.31503596.31503596 0 0 1 .31504-.31504h22.7726a.31503596.31503596 0 0 1 .31503.31504v6.57075a.31503596.31503596 0 0 1-.31503.31503h-14.8967a.31503596.31503596 0 0 0-.31504.31504v6.1207a.31503596.31503596 0 0 0 .31504.31503h13.78057a.31503596.31503596 0 0 1 .31503.31504l-.009 6.1207a.31503596.31503596 0 0 1-.31503.31503H927.4367a.31503596.31503596 0 0 0-.31504.31504v7.47085a.31503596.31503596 0 0 0 .31504.31504zm30.51351-4.72554v11.47631q0 .45005-.45006.45005h-7.20082q-.45005 0-.45005-.45005v-34.86098q0-.39605.38705-.43205c8.12792-.80109 22.48456-1.7102 25.4639 7.39884q3.11436 9.55009-5.91367 14.68068-.42305.24303-.14402.64807l8.60498 12.48443q.36904.53106-.27903.53106h-8.61398a1.0171161 1.0081151 74.2 0 1-.8641-.48606l-7.13782-11.49431q-.24302-.39604-.71108-.39604h-2.24125q-.45005 0-.45005.45005zm.14401-16.43588-.018 8.96502a.25202877.25202877 0 0 0 .25203.25203l4.33849.009a5.1125836 4.6265282.1 0 0 5.12159-4.61752v-.21603a5.1125836 4.6265282.1 0 0-5.10358-4.63553l-4.3385-.009a.25202877.25202877 0 0 0-.25203.25203zm69.22688 21.16142h14.9507a.28803288.28803288 0 0 1 .2881.28803v6.62476a.28803288.28803288 0 0 1-.2881.28803h-22.8266a.28803288.28803288 0 0 1-.288-.28803v-35.42805a.28803288.28803288 0 0 1 .288-.28803h22.8266a.28803288.28803288 0 0 1 .2881.28803v6.62476a.28803288.28803288 0 0 1-.2881.28803h-14.9507a.28803288.28803288 0 0 0-.288.28803v6.17471a.28803288.28803288 0 0 0 .288.28803h13.8256a.28803288.28803288 0 0 1 .288.28803v6.17471a.28803288.28803288 0 0 1-.288.28803h-13.8256a.28803288.28803288 0 0 0-.288.28804v7.52485a.28803288.28803288 0 0 0 .288.28804z" style="stroke-width:.900103"/>
  <rect width="10.567206" height="6.7507706" x="734.02728" y="396.97678" rx=".38704419" style="stroke-width:.900103" transform="rotate(-.1)"/>
  <path  d="M363.32581 50.265679c-20.90939-17.200964-44.45608-29.019313-70.055-37.741309q-.20702-.07201-.18002-.288033.036-.288033.24303-.225025c25.30189 8.262943 49.82069 19.739253 72.6833 33.708848 35.60806 21.755483 64.90641 53.54711 85.8428 89.28119 21.60246 36.86821 31.07154 80.27116 29.57737 122.90903q-.29703 8.55098-.97211 18.04706-.23403 3.17736-.27903 0c-.9001-62.35012-21.0174-120.96481-60.35189-169.0393q-25.4369-31.089543-56.50845-56.652461Z" style="stroke-width:.900103"/>
  <path  d="M95.320209 151.13119c12.592441-14.53666 28.128211-27.88518 45.356181-36.54417 59.17276-29.757395 128.81371-11.29629 169.42634 39.76654 29.49637 37.06623 35.48205 89.02016 15.48177 131.73004-19.40622 41.44073-61.49502 66.55359-106.65318 68.28179-88.20107 3.36639-164.619792-72.44927-149.903112-162.39654C81.791665 113.99295 146.41905 50.130663 224.75499 38.222304c44.26705-6.732769 93.87172-2.637301 131.54102 23.231652 5.96768 4.104469 14.9687 10.657217 22.7726 16.507885q.25202.189021.25202.414047 0 .324037-.27003.144016c-54.58223-37.030227-121.63988-40.414613-182.87387-18.884156q-.20703.07201-.21603.216025 0 .045.009.09001.027.09001.13502.05401c55.62635-18.992169 117.97647-10.342181 167.3021 20.558346 67.03965 41.989791 106.21212 121.711891 99.11031 200.740911-7.81289 86.94092-77.38183 158.17506-164.46677 166.83404-17.66902 1.75521-35.77909 1.7462-53.3671-.77408-66.29256-9.49609-122.12594-50.85581-154.250609-109.11946-18.596123-33.72685-26.210992-72.05323-24.086749-110.3886q.009-.11702.09901-.081l.036.018q.036.027.036.081 2.19625 44.92413 29.163328 80.6132c31.98965 42.35884 79.73111 67.30069 133.35923 62.84518 32.12467-2.67331 63.44824-16.31887 86.80591-38.86644 48.60555-46.93136 54.18618-121.04582 15.07672-175.72706-21.80948-30.50448-55.43732-51.6749-91.74746-60.4509-34.969-8.46096-71.63918-3.85244-102.81874 14.23062-16.69691 9.68511-30.80152 24.28477-41.188708 40.50463q-.70208 1.09812.153017.11701zm104.240901-35.41004c-32.99776 8.89301-55.1853 37.82232-61.72905 70.49605-7.56086 37.7413 4.72554 75.47361 33.38482 101.17154 27.03008 24.23977 69.42492 35.41005 102.32368 16.14785 31.83663-18.64113 46.79634-53.99717 42.57486-90.1903-6.62476-56.84149-54.52823-97.78716-110.70364-102.84574-26.12998-2.34927-56.31043 1.81821-79.83011 14.69868q-.099.054-.027.27903.081.27003.34204.16202c18.51511-8.18193 37.81331-12.12438 58.20964-10.81924q7.63287.48606 15.44576.77409a.06317048.06317048 0 0 1 .009.12602z" style="stroke-width:.900103"/>
  <path  d="M239.35466 131.69797q-.27904-.081-.34204-.35104-.09-.39604.27903-.22502c20.72036 9.55009 36.57117 24.66281 45.99525 45.35617q.081.17102 0 .61207-.072.35104-.23403.027-15.36475-29.84741-45.32017-45.30218-.063-.027-.37804-.11701zm31.48559 133.71027c14.72568-17.00295 20.90039-37.47128 19.71225-60.35189a.17101952.17101952 0 0 1 .33304-.054c6.1567 25.85995 1.80921 52.575-18.82115 70.83809q-17.29997 15.31975-41.87278 14.26663a.18024983.18024983 0 0 1-.018-.36005c15.61678-2.42127 30.48648-12.58343 40.66664-24.33877z" style="stroke-width:.900103"/>
</svg>

