<svg xmlns="http://www.w3.org/2000/svg" xml:space="preserve" width="86" height="86.0114"><path d="M35.2958 36.1504c0 1.0904.8847 1.975 1.975 1.975 1.0847 0 1.9694-.8846 1.9694-1.975 0-1.0847-.8847-1.9693-1.9694-1.9693-1.0903 0-1.975.8846-1.975 1.9693zm2.7104 0c0 .4085-.3297.7382-.7354.7382a.737.737 0 0 1-.7381-.7382c0-.4029.3296-.7353.7381-.7353.403 0 .7354.3324.7354.7353zm3.0456 10.7991-1.2369 1.2368h7.745a.6168.6168 0 0 0 .617-.617v-7.745l-1.2368 1.2368v2.0483l-.924-1.1241-.8763.8762 1.8003 2.1947v1.8933z"/><path d="m48.8503 35.1643-.6705-1.527v-1.2312a.6168.6168 0 0 0-.617-.617h-15.166a.6168.6168 0 0 0-.617.617v15.1632c0 .341.276.617.617.617h3.4287l1.2368-1.2368h-4.0486v-2.3243l1.913-2.8597c.186-.2733.6227-.2733.8115.0056l1.3129 1.9665c.107.1663.2873.262.4817.2733.2142.0141.3832-.0732.51-.2225l3.5527-4.3332c.0874-.107.2282-.169.3804-.169h.0056c.1465 0 .2817.062.369.169l.9974 1.2115.8762-.8762-.9184-1.1185c-.3212-.3945-.803-.617-1.3186-.6227h-.0085c-.5156 0-1.003.2226-1.327.617l-3.0371 3.6908-.8565-1.279c-.648-.958-2.2089-.958-2.8569-.0057l-.8903 1.327v-9.3763h13.9293v4.0486zm1.2143 2.7724-.9354.9353 3.6598 8.3283-12.7543 5.5925-1.4735-3.3527-.9354.9354 1.5214 3.4794c.1014.2339.3296.3691.5691.3691.0817 0 .1663-.014.2423-.0479L53.854 48.085c.1465-.0676.2677-.1887.3268-.3409a.6314.6314 0 0 0-.0085-.4705zm3.6936-6.7195L31.2134 53.762a.7295.7295 0 0 0 0 1.0311.7253.7253 0 0 0 .5156.2142c.186 0 .3747-.0705.5156-.2142l22.542-22.542a.7295.7295 0 0 0 0-1.0311c-.2818-.2874-.7438-.2874-1.0284-.0028z"/></svg>